<svg xmlns="http://www.w3.org/2000/svg" viewBox="391.53 198.2 464.23 437.26">
  <path fill="#f78904" fill-rule="evenodd" d="M592 209.826c-26.262 10.621-49.63 20.147-84.5 34.447-6.05 2.48-23.825 9.683-39.5 16.005-50.734 20.463-54.81 22.434-56.922 27.533-1.034 2.498-.969 3.5.405 6.157 1.878 3.631 8.807 7.191 42.017 21.587C482.363 328.067 489.795 331 492.638 331c1.39 0 5.527-1.298 9.194-2.884 25.38-10.979 72.311-30.658 98.953-41.493 18.315-7.449 22.696-8.121 28.303-4.343 5.86 3.949 7.173 9.62 3.518 15.198-2.115 3.229-10.93 7.175-59.106 26.462-9.9 3.963-25.978 10.605-35.729 14.76-17.59 7.495-17.733 7.582-18.391 11.086-.994 5.303.479 27.518 1.91 28.787 2.784 2.468 15.899 7.638 16.881 6.656.984-.984 1.546-7.952 1.735-21.479.09-6.477.193-6.75 2.552-6.75 2.33 0 13.493 4.795 50.042 21.492 8.8 4.021 18.25 8.306 21 9.524 2.904 1.286 7.951 2.425 12.039 2.717 7.576.541 11.397-.625 29.461-8.995 4.125-1.911 10.875-4.945 15-6.742s10.425-4.606 14-6.242c3.575-1.635 22.475-10.075 42-18.754s38.65-17.227 42.5-18.994c3.85-1.768 12.625-5.685 19.5-8.705 53.169-23.355 56.911-25.296 58.511-30.337.756-2.381-1.858-8.075-4.45-9.694-1.066-.666-15.129-6.427-31.25-12.802S769.125 252.893 754 246.802s-48.187-19.405-73.472-29.587c-39.905-16.07-46.834-18.567-52.5-18.917-6.399-.395-7.112-.167-36.028 11.528"/>
  <path fill="#0d47a1" fill-rule="evenodd" d="M771.5 360.622c-1.65.878-6.375 3.058-10.5 4.844-4.125 1.787-15.825 7.09-26 11.784-17.533 8.09-49.581 22.817-84.077 38.639-8.567 3.929-18.088 7.671-21.157 8.314-5.108 1.072-6.2.955-12.923-1.379-6.588-2.288-63.323-28.299-74.76-34.276-6.722-3.512-21.178-9.786-21.593-9.371-.197.197-.684 7.768-1.082 16.825-.708 16.109-.783 16.526-3.415 19.159-5.25 5.25-15.087 4.945-20.672-.64L492 411.2v-45.915l-6.25-2.248c-3.437-1.236-7.375-2.443-8.75-2.68-2.958-.512-60.786 29.181-67.014 34.41-7.018 5.891-7.399 14.183-.904 19.649 2.97 2.498 40.33 21.234 88.418 44.34 36.508 17.542 49.262 23.689 71 34.219 48.464 23.476 53.719 25.449 62.585 23.509 8.331-1.824 205.605-96.809 211.647-101.905 1.778-1.5 3.748-4.449 4.379-6.555.975-3.256.866-4.404-.732-7.676-2.166-4.435-8.636-8.607-35.379-22.814-9.075-4.821-20.1-10.682-24.5-13.024-10.365-5.517-11.423-5.791-15-3.888m-341 130.011c-29.27 14.777-33.73 17.398-36.909 21.692-2.752 3.718-2.751 11.596.002 15.45 2.406 3.369 11.008 7.689 86.939 43.66 32.433 15.365 65.943 31.28 74.468 35.367 28.507 13.667 53.328 25.345 57.434 27.023 6.297 2.573 15.739 2.062 23.566-1.276 10.82-4.614 47.766-21.982 108.5-51.004 20.35-9.724 48.475-23.154 62.5-29.846 43.944-20.965 45.247-21.68 47.356-25.999 2.54-5.2 1.569-11.621-2.351-15.541-1.582-1.582-13.368-8.175-26.191-14.65s-26.139-13.334-29.592-15.242c-4.585-2.534-6.966-3.297-8.833-2.829-1.405.353-11.855 4.949-23.222 10.213s-21.567 9.921-22.667 10.347c-3.229 1.253-45.397 20.842-70.5 32.751-6.325 3-17.575 8.187-25 11.526-12.631 5.681-13.983 6.072-21 6.081-8.389.012-5.248 1.262-60-23.879-50.12-23.013-102.175-46.245-105.169-46.937-1.684-.389-9.822 3.244-29.331 13.093"/>
</svg>