<svg xmlns="http://www.w3.org/2000/svg" viewBox="488.04 250.31 284.8 278.78">
  <path fill="#0d47a1" fill-rule="evenodd" d="M606 251.948c-47.488 8.679-88.822 41.47-107.214 85.052-30.47 72.205 6.172 155.524 80.543 183.143 20.517 7.619 48.505 10.78 69.922 7.895 14.287-1.924 39.386-10.685 44.895-15.67 8.339-7.547-6.06-30.333-22.146-35.046-5.222-1.53-6.346-1.492-22.213.738-15.266 2.146-17.65 2.245-27.535 1.146-13.844-1.54-20.569-3.321-31.016-8.217-15.573-7.297-27.662-17.836-37.587-32.765-10.892-16.384-14.121-27.636-14.127-49.224-.005-18.098 1.742-26.001 8.773-39.683 16.431-31.975 47.727-51.357 83.205-51.531 31.856-.155 60.931 15.108 78.331 41.122 11.403 17.049 15.601 30.855 15.534 51.092-.052 15.671-1.395 21.893-7.666 35.5-3.878 8.414-4.15 9.586-4.174 18-.024 8.636.149 9.344 4.263 17.5 4.501 8.921 13.518 22 15.168 22 1.585 0 4.614-3.706 16.205-19.827 6.061-8.43 12.101-17.688 13.422-20.573 3.483-7.607 8.125-26.474 9.499-38.6 3.127-27.617-3.627-59.25-17.851-83.605-19.59-33.542-55.312-58.754-95.731-67.565-13.589-2.962-38.802-3.386-52.5-.882"/>
  <path fill="#f78904" fill-rule="evenodd" d="M617 337.886c-7.818 2.527-12.711 5.269-18.902 10.591-12.114 10.412-18.256 23.71-18.256 39.523 0 14.936 5.344 27.16 16.459 37.645 10.28 9.697 21.67 14.334 35.199 14.328 14.881-.006 27.774-5.26 38.054-15.508 11.368-11.334 16.033-23.118 15.213-38.427-.608-11.321-2.956-18.697-8.604-27.016-7.396-10.895-17.667-18.209-30.294-21.569-7.494-1.995-22.035-1.777-28.869.433"/>
</svg>