<svg xmlns="http://www.w3.org/2000/svg" viewBox="372.33 185.36 503.73 448.52">
  <path fill="#0d47a1" fill-rule="evenodd" d="M587.823 186.007c-27.347 2.091-54.923 9.732-81.323 22.533-25.102 12.171-42.661 24.563-62.829 44.34-36.26 35.558-59.417 79.406-67.648 128.092-4.422 26.151-4.841 47.536-1.423 72.528 7.425 54.285 35.222 105.425 76.829 141.346C463.341 605.129 476.026 614 478.82 614c3.781 0 6.915-3.769 9.09-10.93 2.96-9.745 9.435-17.877 18.973-23.826 6.832-4.262 14.364-6.377 27.114-7.613l12.503-1.212-10.194-5.273c-18.249-9.441-30.547-18.521-44.444-32.817-22.503-23.149-37.739-54.495-42.78-88.021-1.794-11.923-1.353-36.526.889-49.64 2.309-13.505 8.425-32.497 14.175-44.018 12.087-24.219 32.829-47.633 55.923-63.127 8.515-5.713 28.816-15.495 39.327-18.949 18.805-6.181 40.719-8.826 61.761-7.454 28.083 1.832 51.361 9.424 77.878 25.401l11.045 6.655 3.71-2.817c6.014-4.567 46.21-44.536 46.21-45.95 0-1.668-20.943-17.434-32.128-24.187-42.755-25.812-92.146-37.879-140.049-34.215m237.646 202.714c-19.302 12.033-41.528 30.148-46.384 37.806-2.024 3.192-3.47 7.993-5.44 18.066-1.476 7.546-4.336 18.712-6.356 24.813-4.571 13.81-15.05 34.741-22.863 45.67-13.082 18.297-33.84 36.767-52.453 46.67-4.915 2.614-8.945 5.091-8.955 5.504-.028 1.147 19.346.869 52.482-.754 16.5-.808 33.476-1.476 37.724-1.483l7.725-.013 7.096-8.25c24.594-28.594 40.681-65.351 46.495-106.24 2.841-19.979 1.214-65.51-2.34-65.51-.42 0-3.448 1.674-6.731 3.721"/>
  <path fill="#f78904" fill-rule="evenodd" d="M829.748 242.427c-6.1 2.177-3.526-.122-64.421 57.522-14.205 13.446-36.397 34.371-49.315 46.5-33.287 31.25-61.558 58.073-75.512 71.641-13.591 13.216-18.87 17.91-20.144 17.91-.484 0-12.39-11.812-26.458-26.25-29.536-30.311-30.817-31.233-43.398-31.244-6.78-.005-8.886.429-13.806 2.845-7.491 3.678-15.647 12.08-19.681 20.274-2.642 5.367-3.189 7.651-3.189 13.306 0 4.534.585 7.959 1.742 10.198.958 1.854 8.544 10.346 16.858 18.871 8.313 8.525 26.581 27.584 40.595 42.353 14.015 14.769 27.281 27.871 29.481 29.116 9.792 5.541 24.329 6.045 34.891 1.21 6.001-2.748 7.167-3.8 45.609-41.134 8.525-8.279 19.55-18.861 24.5-23.514 9.328-8.769 14.758-13.963 57.505-55.013 35.904-34.477 43.974-42.255 65.495-63.125 10.45-10.133 23.2-22.467 28.334-27.409 7.751-7.46 9.998-10.353 13.25-17.057 4.95-10.205 5.215-15.712 1.132-23.528-2.588-4.953-6.269-8.554-19.964-19.53-4.245-3.403-9.671-5.281-15.252-5.281-2.475 0-6.188.602-8.252 1.339M651.5 594.001c-11 .417-40.925 1.514-66.5 2.438-51.559 1.863-52.448 1.994-58.38 8.56-8.055 8.916-5.26 21.608 5.953 27.036 4.611 2.232 4.712 2.236 27.777 1.101 33.643-1.655 63.117-2.923 97.15-4.178 21.628-.798 31.173-1.523 34.203-2.597 13.158-4.666 15.389-22.222 3.915-30.799-3.285-2.457-12.176-2.771-44.118-1.561"/>
</svg>