<svg xmlns="http://www.w3.org/2000/svg" viewBox="407.24 280.03 419.57 271.97">
  <path fill="#0d47a1" fill-rule="evenodd" d="M456.83 281.399c-4.712 1.683-11.629 6.772-14.037 10.327-5.609 8.283-5.266 2.431-5.604 95.774-.171 47.3-.024 88.797.326 92.215.399 3.895 1.462 7.44 2.848 9.5 4.27 6.343 3.568 6.257 53.28 6.564l45.144.279 3.683-5.017c14.686-20.006 39.437-29.075 62.945-23.063 11.153 2.853 16.952 6.365 26.842 16.261 4.816 4.818 8.961 8.761 9.211 8.761s.945-1.913 1.543-4.25c4.798-18.741 14.355-33.301 31.773-48.403l3.283-2.847-3.55-6.656c-8.294-15.548-10.316-37.043-5.107-54.307 7.931-26.284 26.152-44.877 51.59-52.643 8.292-2.531 25.351-3.203 38.25-1.506l6.75.888v-10.501c0-18.455-2.922-26.654-10.961-30.755-3.92-2-5.415-2.02-149.249-1.976-117.204.035-145.999.297-148.96 1.355m32.469 63.104c-3.273 2.293-4.788 7.92-3.39 12.589 2.187 7.3-1.766 6.908 69.725 6.908h64.188l2.589-3.077c3.787-4.5 3.642-11.024-.334-15L619.154 343h-63.855c-55.199 0-64.145.204-66 1.503m1.464 50.062c-3.169 1.719-5.763 6.192-5.763 9.935 0 3.373 2.501 8.163 4.945 9.47 1.221.654 15.651 1.03 39.535 1.03h37.611l2.388-2.388c5.332-5.333 3.721-15.377-2.911-18.148-5.199-2.172-71.779-2.083-75.805.101m-82.35 128.928c-3.516 5.366.085 9.134 21.745 22.757L439.3 552h373.463l2.881-2.947c3.439-3.518 10.279-16.805 11.029-21.424.371-2.286.024-3.789-1.142-4.955-1.554-1.555-16.437-1.674-208.579-1.674H410.046z"/>
  <path fill="#f78904" fill-rule="evenodd" d="M731 358.937c-10.04 3.073-19.245 10.86-24.308 20.563-2.879 5.516-3.129 6.767-3.098 15.5.039 10.822 1.876 16.207 8.141 23.852 13.969 17.047 40.676 17.445 55.988.833 12.103-13.13 13.51-31.171 3.558-45.626-4.495-6.53-12.498-12.399-19.803-14.523-5.515-1.603-16.179-1.915-20.478-.599m-20.5 90.528c-10.459 3.152-23.109 11.836-30.884 21.204-8.802 10.604-12.492 19.814-14.699 36.681-1.014 7.749-1.007 9.837.039 11.098 1.144 1.377 9.55 1.552 74.559 1.552 65.891 0 73.332-.159 73.878-1.582 1.619-4.219.116-16.875-3.428-28.861-3.692-12.489-17.8-28.291-31.465-35.242-11.506-5.853-13.545-6.024-22.127-1.861-8.768 4.254-15.306 5.969-19.647 5.154-1.819-.341-6.664-2.238-10.767-4.215-10.734-5.173-11.055-5.255-15.459-3.928m-130.921 42.638c-7.28 2.504-12.652 6.126-18.736 12.632-5.001 5.348-9.294 12.726-8.322 14.299.367.593 14.864.966 37.538.966H627l-.022-2.25c-.033-3.34-3.274-9.879-7.002-14.124-4.599-5.238-10.603-9.142-17.777-11.559-7.697-2.593-15.009-2.581-22.62.036"/>
</svg>