<svg xmlns="http://www.w3.org/2000/svg" viewBox="359.13 259.1 529.33 295.06">
  <path fill="#0d47a1" fill-rule="evenodd" d="M446.299 260.061c-15.477 2.015-34.421 9.666-46.299 18.7-22.834 17.367-36.59 42.033-40.124 71.949-.67 5.664-.913 21.062-.631 40 .431 29.081.598 31.317 3.009 40.29 5.139 19.131 13.092 32.642 27.664 47 5.588 5.506 13.294 11.812 18.327 15l8.685 5.5.035 27.75c.027 21.454.319 27.775 1.285 27.861 4.903.434 10.153-1.675 22.25-8.94 7.788-4.677 26.414-17.605 38.702-26.862l9.701-7.309h56.549c31.101 0 56.548-.238 56.548-.528 0-.291-3.038-4.288-6.75-8.884-16.522-20.451-25.852-43.035-28.335-68.588-4.19-43.108 17.932-88.815 54.893-113.421 16.299-10.851 31.89-16.963 50.037-19.617 5.21-.761 8.155-1.642 8.155-2.439 0-1.824-15.596-16.496-22.537-21.203-11.83-8.021-24.119-13.039-38.713-15.808-6.731-1.277-20.284-1.492-87.11-1.385-43.527.07-81.931.49-85.341.934"/>
  <path fill="#f78904" fill-rule="evenodd" d="M683.344 299.546c-.262.683 1.065 4.327 2.949 8.098 4.159 8.323 8.088 19.931 7.222 21.332-.348.563-3.644 1.028-7.324 1.033-8.54.012-24.468 4.011-34.145 8.572-21.992 10.367-39.978 30.25-47.872 52.919-8.389 24.094-7.085 48.958 3.786 72.155 4.555 9.721 8.132 15.09 15.26 22.91 9.385 10.296 27.044 21.87 39.03 25.581 13.313 4.122 13.332 4.123 58.75 4.745l44.5.609 15.853 10.702c26.957 18.198 50.566 28.68 56.334 25.012 2.691-1.71 3.314-7.002 3.363-28.529l.049-22.185 8.557-6.428c18.049-13.559 30.773-32.592 36.481-54.572 2.124-8.182 2.335-11.091 2.317-32-.017-20.524-.258-23.915-2.244-31.5-5.02-19.176-12.434-32.827-25.184-46.37-17.846-18.957-41.251-29.706-71.026-32.62-16.457-1.61-106.005-1.161-106.656.536"/>
</svg>