<svg xmlns="http://www.w3.org/2000/svg" viewBox="385 213.01 483.8 381.7">
  <path fill="#f78904" fill-rule="evenodd" d="M434 252.071c-6.325.408-13.133 1.175-15.13 1.703-13.158 3.484-25.412 14.079-30.278 26.18-2.722 6.771-2.938 8.335-3.383 24.538-.262 9.518-.182 18.478.177 19.91l.653 2.603 195.731-.252 195.73-.253.277-15.445c.347-19.352-1.211-28.704-6.043-36.257-6.527-10.203-18.434-18.568-31.234-21.943-5.639-1.487-45.741-1.931-47.161-.523-.462.458-1.067 6.308-1.346 13-.535 12.821-1.502 16.02-6.162 20.37-7.452 6.958-20.687 6.788-26.964-.346C654.33 280.2 653 275.414 653 264.24c0-7.098-.414-11.254-1.2-12.04-.91-.91-18.026-1.2-70.918-1.2-38.345 0-70.43.273-71.3.607-1.292.496-1.582 2.385-1.582 10.318 0 13.023-1.748 18.667-7.395 23.872-7.71 7.107-19.202 6.712-26.603-.914-4.753-4.898-6.002-9.416-6.002-21.714 0-8.961-.218-10.215-1.934-11.134-2.116-1.132-14.165-1.118-32.066.036m328 176.76c0 .457-1.075 1.407-2.39 2.11-4.374 2.341-4.61 4.347-4.61 39.154v33l2.439 2.261c1.341 1.243 6.38 4.709 11.197 7.702 4.818 2.993 13.283 8.257 18.812 11.697 13.009 8.095 21.386 12.243 24.725 12.244 3.704.001 8.625-4.408 9.374-8.398 1.257-6.701-1.635-10.381-14.547-18.507-2.475-1.558-10.013-6.298-16.75-10.535L778 491.857v-24.87c0-16.954-.349-25.085-1.096-25.546-.603-.373-.906-1.972-.674-3.554.322-2.194-.34-3.708-2.789-6.382-2.674-2.919-3.899-3.505-7.326-3.505-2.263 0-4.115.374-4.115.831"/>
  <path fill="#0d47a1" fill-rule="evenodd" d="M479.5 215.368c-5.483 2.575-7.37 4.402-9.854 9.536-1.378 2.85-1.646 7.058-1.646 25.884 0 25.33.555 28.482 6.002 34.095 10.386 10.702 28.221 6.207 32.497-8.191 2.104-7.086 2.127-42.223.031-49.278-1.463-4.928-6.475-10.869-11.214-13.296-3.557-1.821-10.435-1.277-15.816 1.25m186-.468c-4.938 2.291-9.861 7.489-11.366 11.999-.71 2.13-1.134 11.763-1.134 25.79 0 20.809.15 22.688 2.117 26.601 2.792 5.555 4.629 7.538 9.093 9.816 9.217 4.705 20.875.459 25.958-9.454 1.796-3.503 1.974-5.944 1.992-27.213.013-15.085-.391-24.61-1.14-26.879-.638-1.932-3.152-5.267-5.588-7.411-6.274-5.523-12.755-6.579-19.932-3.249M385.657 365.66c-1.072 27.187-.767 159.069.385 166.166 1.788 11.019 7.796 21.148 19.393 32.696 8.985 8.946 11.192 10.568 20.565 15.113 5.775 2.801 12.075 5.715 14 6.477 2.899 1.148 23.966 1.432 122.75 1.656 65.587.15 119.25-.009 119.25-.351 0-.343-2.092-2.939-4.65-5.77-2.557-2.831-5.37-6.282-6.25-7.669s-3.46-4.987-5.732-8c-6.899-9.145-15.086-26.232-18.676-38.978-13.869-49.237 7.263-105.326 50.814-134.875C719.08 377.487 742.96 370 768.072 370H777v-21H386.314zM576.5 388.728c-14.864.262-16.124.431-17.75 2.388-1.559 1.875-1.75 4.707-1.75 25.884 0 21.169.192 24.012 1.75 25.907 1.671 2.032 2.855 2.155 26.25 2.74 24.2.604 24.534.585 27.25-1.59l2.75-2.202v-49.71l-2.635-2.072c-2.265-1.782-3.843-2.042-11.25-1.85-4.738.122-15.815.349-24.615.505M456 389.93l-7.5.57-.277 26c-.271 25.511-.236 26.033 1.861 27.75 1.899 1.555 4.722 1.75 25.304 1.75 19.349 0 23.533-.257 25.389-1.557 2.199-1.54 2.223-1.831 2.223-27.3 0-18.689-.329-26.072-1.2-26.943-1.257-1.257-30.532-1.43-45.8-.27m298.5 6.989c-8.018 1.29-22.377 5.994-29.975 9.82-24.312 12.243-41.423 31.218-50.285 55.761-4.808 13.318-5.531 18.645-4.975 36.669.438 14.183.862 17.446 3.227 24.809 6.168 19.201 18.925 37.04 36.309 50.773 11.236 8.876 31.33 17.024 47.699 19.34 8.364 1.184 27.612.569 33-1.054 15.896-4.787 21.094-6.78 28-10.734 23.697-13.567 41.588-36.814 49.104-63.803 2.098-7.533 2.892-27.681 1.474-37.381-3.217-22-11.971-39.065-28.549-55.654-18.677-18.689-40.888-28.224-67.529-28.99-6.875-.198-14.75.002-17.5.444m5.723 31.752c-.702.283-2.164 2.254-3.25 4.381-1.846 3.62-1.973 5.991-1.973 36.956v33.087l2.439 2.261c1.341 1.243 6.38 4.709 11.197 7.702 4.818 2.993 13.283 8.257 18.812 11.697 13.009 8.095 21.386 12.243 24.725 12.244 3.704.001 8.625-4.408 9.374-8.398 1.257-6.701-1.635-10.381-14.547-18.507-2.475-1.558-10.013-6.298-16.75-10.535L778 491.857v-26.806c0-29.541-.429-32.143-5.821-35.301-2.813-1.648-9.124-2.217-11.956-1.079m-307.9 52c-4.22.87-4.369 1.923-4.09 28.952l.267 25.877 26.377.267c18.623.188 26.781-.068 27.75-.873 1.098-.91 1.373-6.205 1.373-26.394 0-22.257-.196-25.418-1.651-26.628-1.283-1.066-6.801-1.403-24.75-1.511-12.705-.076-24.079.063-25.276.31m109.842.776c-1.834.665-3.739 1.849-4.234 2.631s-.907 11.784-.916 24.449c-.012 19.241.241 23.393 1.542 25.25 1.542 2.202 1.809 2.223 27.965 2.223 25.085 0 26.459-.097 27.443-1.934.631-1.179 1.035-11.301 1.035-25.928v-23.993l-2.635-2.072c-2.497-1.964-3.794-2.067-24.75-1.954-14.492.078-23.264.536-25.45 1.328"/>
</svg>