<svg xmlns="http://www.w3.org/2000/svg" viewBox="402.77 241.08 437.56 333.88">
  <path fill="#0d47a1" fill-rule="evenodd" d="M492.5 242.028c-8.561 1.076-13.047 2.873-23.247 9.312-4.293 2.71-12.111 10.996-13.913 14.746-.638 1.328-2.213 4.664-3.5 7.414l-2.34 5-.271 114.422c-.192 81.493-.587 114.805-1.372 115.75-.855 1.03-6.035 1.328-23.096 1.328h-21.994l.402 6.313c1.072 16.831 19.638 41.641 38.509 51.459 13.81 7.184 13.965 7.199 75.322 7.192l54.5-.006 6.866-2.423c15.943-5.626 22.071-11.897 47.458-48.568 4.772-6.893 10.242-14.465 12.155-16.827l3.479-4.294.139-17.673c.11-14.04.578-19.626 2.275-27.173 3.837-17.065 10.681-31.575 21.79-46.199 4.086-5.377 20.082-20.801 21.574-20.801.418 0 2.898-1.511 5.512-3.357 12.374-8.74 32.354-15.842 50.252-17.861l2.5-.282.265-42c.279-44.24-.009-48.125-4.252-57.277-3.057-6.595-16.292-20.065-23.106-23.515-11.803-5.977-6.375-5.721-117.839-5.571-56.137.075-104.768.476-108.068.891m8.936 77.273c-2.298 1.977-2.745 3.283-3.173 9.268-.478 6.681-.374 7.1 2.52 10.199l3.019 3.232h76.474c42.061 0 77.886-.282 79.613-.628 4.52-.904 6.549-5.604 5.832-13.51-.398-4.389-1.169-6.71-2.809-8.456L660.651 317H504.112zm-.332 71.234c-2.701 3.076-3.104 4.28-3.104 9.277 0 5.702 1.424 9.125 4.954 11.906 1.165.918 13.381 1.226 49.609 1.25l48.063.032 2.687-2.805c2.393-2.497 2.686-3.565 2.673-9.75-.007-3.82-.255-7.845-.551-8.945-1.161-4.321-3.296-4.5-53.531-4.5h-47.697zM506 456.722c-4.909 1.844-6.867 4.363-7.533 9.693-.957 7.662.06 11.129 3.972 13.547 3.168 1.958 4.806 2.038 41.825 2.038h38.529l3.224-3.672c3.137-3.573 3.206-3.85 2.55-10.25-.531-5.19-1.229-7.158-3.307-9.328l-2.634-2.75-37.563.079c-20.66.043-38.238.333-39.063.643"/>
  <path fill="#f78904" fill-rule="evenodd" d="M501.104 390.535C498.378 393.639 498 394.793 498 400s.378 6.361 3.104 9.465l3.103 3.535h96.419l2.687-2.805C605.734 407.669 606 406.658 606 400s-.266-7.669-2.687-10.195L600.626 387h-96.419zM743 391.969c-22.217 2.659-40.684 12.185-56.943 29.377-2.938 3.106-5.9 6.662-6.583 7.901C671.177 444.296 669 448.562 669 449.772c0 .784-.628 2.844-1.396 4.577-3.562 8.042-4.492 25.497-2.17 40.738 1.697 11.146 2.993 14.937 8.5 24.863 11.567 20.849 27.378 34.422 50.066 42.984 13.863 5.231 44.281 4.942 56.651-.538 1.733-.768 3.533-1.404 4-1.415.467-.01 3.999-1.606 7.849-3.547 9.347-4.712 20.198-13.317 26.693-21.165 6.119-7.395 14.804-21.028 14.813-23.253.004-.834.709-2.863 1.567-4.51 3.029-5.809 4.85-18.395 4.752-32.841-.06-8.719-.507-14.247-1.21-14.95-.613-.613-1.115-2.348-1.115-3.856s-.45-3.019-1-3.359-1-1.498-1-2.573-.396-2.736-.881-3.691c-.484-.955-1.947-3.885-3.25-6.511s-3.229-6.412-4.279-8.413C823.077 423.718 795.977 400 790.669 400c-.698 0-1.696-.358-2.219-.796-.522-.438-2.75-1.367-4.95-2.066s-4.9-1.644-6-2.101c-6.46-2.685-24.381-4.279-34.5-3.068m25.854 66.771c-11.356 11.418-23.621 23.674-27.256 27.237l-6.609 6.476-10.262-10.226L714.466 472h-5.617c-5.284 0-5.83.237-9.233 4.003-4.316 4.777-4.501 7.117-.944 11.903 5.052 6.795 27.831 29.329 31.046 30.711 4.23 1.818 9.723 1.761 11.282-.117.685-.825 1.757-1.5 2.382-1.5 2.078 0 60.454-59.496 61.168-62.343.977-3.894-.363-11.206-2.344-12.792-3.357-2.686-6.23-3.865-9.442-3.875-2.922-.009-5.427 2.165-23.91 20.75"/>
</svg>