<svg xmlns="http://www.w3.org/2000/svg" viewBox="409.01 244 428.91 340">
  <path fill="#0d47a1" fill-rule="evenodd" d="M528.829 266.001c-14.576 2.529-34.858 10.198-48.078 18.18-40.194 24.268-64.349 60.239-70.722 105.319-1.48 10.47-1.32 29.013.261 30.326.908.753 8.833.793 26.75.135 14.003-.515 31.01-1.054 37.793-1.199 13.938-.296 15.167-.934 15.167-7.865 0-8.38 2.979-19.457 7.924-29.466 4.239-8.58 6.158-11.199 12.968-17.705 6.279-5.999 10.033-8.616 17.51-12.204 5.234-2.513 10.21-5.558 11.057-6.768 1.323-1.888 1.527-7.289 1.441-38.227-.055-19.815-.41-37.152-.789-38.527-.787-2.854-3.541-3.342-11.282-1.999M415.996 441.505c-1.68 2.024-.759 7.255 3.396 19.278 10.54 30.503 26.684 57.33 41.835 69.519 11.672 9.39 34.842 19.763 55.03 24.636 19.857 4.794 47.728 6.979 51.291 4.022 3.388-2.811 3.605-6.013 2.874-42.36-.641-31.835-.915-36.093-2.421-37.599-1.289-1.289-4.203-1.837-12.1-2.273-20.629-1.14-37.866-9.718-55.756-27.745L491.23 440h-36.993c-31.721 0-37.17.215-38.241 1.505m187.623 13.529c-3.922 1.175-7.516 4.671-9.729 9.466-1.716 3.719-1.848 7.538-1.868 54.395L592 569.291l-27.25-.372c-14.987-.205-53.687-.27-86-.146-57.26.221-58.801.278-60.75 2.227-2.978 2.978-2.667 8.33.635 10.927L421.27 584h412.585l2.072-2.635c2.624-3.335 2.655-7.783.073-10.365-1.93-1.93-3.436-2.005-43.25-2.147-22.687-.081-62.962-.025-89.5.123l-48.25.27-.044-49.873c-.046-52.451-.219-54.69-4.611-59.546-4.596-5.082-8.071-5.833-26.555-5.741-9.51.047-18.586.474-20.171.948"/>
  <path fill="#f78904" fill-rule="evenodd" d="m565.933 246.25-2.144 2.25.694 46c.476 31.536 1.059 46.763 1.855 48.426.767 1.601 2.693 2.887 5.662 3.781 17.24 5.189 22.909 7.983 33.89 16.706 10.1 8.022 12.707 8.425 19.265 2.978 2.39-1.984 14.92-13.838 27.845-26.341s25.132-24.152 27.127-25.887c4.33-3.765 6.346-8.142 5.431-11.788-1.568-6.247-24.183-26.137-41.058-36.11C623.262 253.714 592.965 244 575.056 244c-5.934 0-7.299.336-9.123 2.25m209.756 70.851c-7.083.789-12.364 4.598-14.356 10.352-1.098 3.17-1.295 25.311-1.087 121.96L760.5 567.5l30 .556c18.138.336 30.501.184 31.266-.385 1.011-.753 1.212-25.002 1-120.635l-.266-119.692-2.882-3.778c-1.585-2.078-4.323-4.38-6.085-5.117-3.613-1.509-28.453-2.394-37.844-1.348m-90.189 73.17c-2.636 1.474-4.767 3.758-6.25 6.695l-2.25 4.458V568h29.8c21.844 0 30.12-.32 31-1.2.914-.914 1.2-20.775 1.2-83.288v-82.088l-2.25-4.458c-1.483-2.937-3.614-5.221-6.25-6.695-3.74-2.093-5.203-2.238-22.5-2.238s-18.76.145-22.5 2.238"/>
</svg>