<svg xmlns="http://www.w3.org/2000/svg" viewBox="429.5 203.67 396.64 408.25">
  <path fill="#0d47a1" fill-rule="evenodd" d="M604.908 261.89c-9.523 3.726-19.939 13.059-27.921 25.018-9.926 14.874-20.117 40.649-25.388 64.212-3.459 15.464-3.474 15.272 1.151 14.552 34.569-5.376 88.123-5.401 128.401-.058l4.849.644v-2.974c0-1.796-1.648-5.51-4.163-9.379-5.272-8.113-12.757-24.043-16.165-34.405-4.194-12.753-5.672-21.71-5.672-34.374v-11.743l-8.852-1.253c-7.957-1.126-9.436-1.69-14.624-5.57-3.175-2.375-7.456-4.822-9.514-5.439-5.646-1.691-16.806-1.303-22.102.769m-50.495 6.609c-26.945 7.971-50.654 22.053-72.196 42.882-15.8 15.278-26.088 29.233-35.591 48.277-7.349 14.73-16.054 40.247-14.321 41.981.292.292 7.431-2.867 15.863-7.02 16.869-8.308 36.605-15.185 60.424-21.056l15.091-3.719 1.207-6.672c3.818-21.106 11.735-45.634 20.148-62.419 6.018-12.006 15.502-27.122 19.007-30.294 2.428-2.197 2.534-4.477.205-4.406-.962.029-5.389 1.13-9.837 2.446M578 387.116c-13.117 1.311-32.258 3.809-32.718 4.269-1.086 1.086-2.304 22.147-2.32 40.115-.023 25.01 1.679 46.894 5.326 68.5l1.266 7.5 9.22 1.146c15.394 1.912 40.828 3.355 58.753 3.333 28.253-.036 67.519-3.168 69.928-5.577 1.155-1.155 3.006-11.785 5.469-31.402 2.51-19.986 2.062-66.508-.769-80l-.734-3.5-8.961-1.2c-23.702-3.176-42.129-4.296-68.584-4.167-15.057.073-31.201.515-35.876.983m210.767 17.624C774.627 420.518 753.6 441 751.542 441c-.982 0-10.135-8.321-20.34-18.491s-18.742-18.302-18.972-18.072c-.231.23.073 5.816.675 12.413 1.359 14.891 1.383 28.539.08 46.65-.94 13.068-3.371 33.024-4.668 38.319-.539 2.2-.37 2.285 3.307 1.662 11.471-1.943 36.669-8.3 49.375-12.456 25.639-8.387 40.996-17.712 44.164-26.817 1.63-4.686 1.608-23.459-.042-36.208-1.461-11.28-5.093-30.978-6.041-32.76-.436-.82-4.035 2.495-10.313 9.5m-286.157-5.17c-34.233 8.924-62.354 21.326-70.11 30.918l-3 3.711v14.15c0 13.714.087 14.299 2.813 18.937 1.548 2.633 4.923 6.331 7.5 8.218 5.58 4.086 23.816 12.064 37.533 16.422 8.968 2.849 33.684 8.969 42.904 10.624 4.604.826 4.535 1.716 1.557-20.05-1.831-13.382-2.198-20.909-2.248-46-.032-16.5.294-32.363.725-35.25l.785-5.25-2.785.105c-1.531.057-8.585 1.616-15.674 3.465m-62.946 105.18c9.701 23.287 22.931 42.771 40.979 60.351 21.099 20.551 44.403 34.355 70.657 41.853 12.035 3.437 22.521 5.558 23.355 4.724.327-.327-2.243-3.876-5.711-7.886-14.882-17.211-26.375-38.598-35.328-65.744l-3.117-9.452-13.5-2.653c-26.008-5.112-52.126-13.147-68.495-21.072-10.149-4.913-10.84-4.923-8.84-.121m345.836 1.273c-15.651 7.538-42.618 15.642-66.5 19.984-17.603 3.201-15.604 1.557-20.673 16.993-7.904 24.069-20.501 47.094-33.733 61.657-3.076 3.387-5.594 6.424-5.594 6.75 0 1.585 15.327-.719 26.862-4.039 12.913-3.716 35.276-13.962 45.133-20.678 18.82-12.824 37.425-32.054 49.043-50.69 4.863-7.802 16.946-31.494 16.957-33.25.01-1.534-3.718-.472-11.495 3.273m-108.624 26.435c-.988.987-42.263 3.539-57.376 3.546-8.8.005-26.25-.732-38.777-1.638-12.527-.905-23.046-1.376-23.376-1.046-.329.329 1.094 5.229 3.162 10.889 12.634 34.565 33.421 59.93 52.335 63.861 6.333 1.316 14.565.159 21.253-2.987 11.097-5.221 24.081-19.393 33.26-36.304 4.347-8.008 11.695-25.498 12.998-30.936.35-1.462.912-3.374 1.248-4.25.456-1.189-.008-1.593-1.829-1.593-1.343 0-2.647.206-2.898.458"/>
  <path fill="#f78904" fill-rule="evenodd" d="M743.5 204.022c-16.078 1.432-30.666 8.248-42.983 20.084-28.676 27.553-30.807 67.733-6.067 114.394 10.381 19.58 13.573 24.44 27.511 41.881 14.955 18.714 28.93 33.783 30.495 32.884 3.411-1.958 25.031-27.813 35.779-42.786 5.877-8.187 21.765-33.666 21.765-34.904 0-.281 1.826-4.238 4.057-8.793 10.642-21.724 14.663-46.929 10.411-65.265-8.766-37.798-41.459-61.013-80.968-57.495m-1 43.306c-5.618 2.203-9.199 4.565-12.333 8.134-11.488 13.084-10.288 30.575 2.87 41.838 13.977 11.964 36.221 7.281 45.167-9.509 3.005-5.64 3.226-19.384.396-24.698-3.365-6.32-10.458-12.896-16.245-15.061-6.042-2.261-15.068-2.581-19.855-.704"/>
</svg>